HIERARCHY
ROOT hip
{
  OFFSET 0 0 0
  CHANNELS 6 Xposition Yposition Zposition Zrotation Yrotation Xrotation
  JOINT abdomen
  {
    OFFSET 0 20.6881 -0.73152
    CHANNELS 3 Zrotation Xrotation Yrotation
    JOINT chest
    {
      OFFSET 0 11.7043 -0.48768
      CHANNELS 3 Zrotation Xrotation Yrotation
      JOINT neck
      {
        OFFSET 0 22.1894 -2.19456
        CHANNELS 3 Zrotation Xrotation Yrotation
        JOINT head
        {
          OFFSET -0.24384 7.07133 1.2192
          CHANNELS 3 Zrotation Xrotation Yrotation
          JOINT leftEye
          {
            OFFSET 4.14528 8.04674 8.04672
            CHANNELS 3 Zrotation Xrotation Yrotation
            End Site
            {
              OFFSET 1 0 0
            }
          }
          JOINT rightEye
          {
            OFFSET -3.6576 8.04674 8.04672
            CHANNELS 3 Zrotation Xrotation Yrotation
            End Site
            {
              OFFSET 1 0 0
            }
          }
        }
      }
      JOINT rCollar
      {
        OFFSET -2.68224 19.2634 -4.8768
        CHANNELS 3 Zrotation Xrotation Yrotation
        JOINT rShldr
        {
          OFFSET -8.77824 -1.95073 1.46304
          CHANNELS 3 Zrotation Xrotation Yrotation
          JOINT rForeArm
          {
            OFFSET -28.1742 -1.7115 0.48768
            CHANNELS 3 Zrotation Xrotation Yrotation
            JOINT rHand
            {
              OFFSET -22.5879 0.773209 7.07136
              CHANNELS 3 Zrotation Xrotation Yrotation
              JOINT rThumb1
              {
                OFFSET -1.2192 -0.487915 3.41376
                CHANNELS 3 Zrotation Xrotation Yrotation
                JOINT rThumb2
                {
                  OFFSET -3.37035 -0.52449 3.41376
                  CHANNELS 3 Zrotation Xrotation Yrotation
                  End Site
                  {
                    OFFSET -1.78271 -1.18214 1.43049
                  }
                }
              }
              JOINT rIndex1
              {
                OFFSET -7.75947 0.938293 5.60832
                CHANNELS 3 Zrotation Xrotation Yrotation
                JOINT rIndex2
                {
                  OFFSET -2.54057 -0.884171 1.56538
                  CHANNELS 3 Zrotation Xrotation Yrotation
                  End Site
                  {
                    OFFSET -1.62519 -0.234802 1.16502
                  }
                }
              }
              JOINT rMid1
              {
                OFFSET -8.24714 1.18213 3.41376
                CHANNELS 3 Zrotation Xrotation Yrotation
                JOINT rMid2
                {
                  OFFSET -3.10165 -0.590103 1.0647
                  CHANNELS 3 Zrotation Xrotation Yrotation
                  End Site
                  {
                    OFFSET -2.48547 -0.328903 0.83742
                  }
                }
              }
              JOINT rRing1
              {
                OFFSET -8.82822 0.546677 1.51678
                CHANNELS 3 Zrotation Xrotation Yrotation
                JOINT rRing2
                {
                  OFFSET -2.60934 -0.819778 -0.0198488
                  CHANNELS 3 Zrotation Xrotation Yrotation
                  End Site
                  {
                    OFFSET -2.33842 -0.294052 0.168128
                  }
                }
              }
              JOINT rPinky1
              {
                OFFSET -8.27202 -0.0477905 -0.4584
                CHANNELS 3 Zrotation Xrotation Yrotation
                JOINT rPinky2
                {
                  OFFSET -1.82734 -0.647385 -0.700984
                  CHANNELS 3 Zrotation Xrotation Yrotation
                  End Site
                  {
                    OFFSET -1.69225 -0.51767 -0.607171
                  }
                }
              }
            }
          }
        }
      }
      JOINT lCollar
      {
        OFFSET 2.68224 19.2634 -4.8768
        CHANNELS 3 Zrotation Xrotation Yrotation
        JOINT lShldr
        {
          OFFSET 8.77824 -1.95073 1.46304
          CHANNELS 3 Zrotation Xrotation Yrotation
          JOINT lForeArm
          {
            OFFSET 28.1742 -1.7115 0.48768
            CHANNELS 3 Zrotation Xrotation Yrotation
            JOINT lHand
            {
              OFFSET 22.5879 0.773209 7.07136
              CHANNELS 3 Zrotation Xrotation Yrotation
              JOINT lThumb1
              {
                OFFSET 1.2192 -0.487915 3.41376
                CHANNELS 3 Zrotation Xrotation Yrotation
                JOINT lThumb2
                {
                  OFFSET 3.37035 -0.52449 3.41376
                  CHANNELS 3 Zrotation Xrotation Yrotation
                  End Site
                  {
                    OFFSET 1.78271 -1.18214 1.43049
                  }
                }
              }
              JOINT lIndex1
              {
                OFFSET 7.75947 0.938293 5.60832
                CHANNELS 3 Zrotation Xrotation Yrotation
                JOINT lIndex2
                {
                  OFFSET 2.54057 -0.884171 1.56538
                  CHANNELS 3 Zrotation Xrotation Yrotation
                  End Site
                  {
                    OFFSET 1.62519 -0.234802 1.16502
                  }
                }
              }
              JOINT lMid1
              {
                OFFSET 8.24714 1.18213 3.41376
                CHANNELS 3 Zrotation Xrotation Yrotation
                JOINT lMid2
                {
                  OFFSET 3.10165 -0.590103 1.0647
                  CHANNELS 3 Zrotation Xrotation Yrotation
                  End Site
                  {
                    OFFSET 2.48547 -0.328903 0.83742
                  }
                }
              }
              JOINT lRing1
              {
                OFFSET 8.82822 0.546677 1.51678
                CHANNELS 3 Zrotation Xrotation Yrotation
                JOINT lRing2
                {
                  OFFSET 2.60934 -0.819778 -0.0198488
                  CHANNELS 3 Zrotation Xrotation Yrotation
                  End Site
                  {
                    OFFSET 2.33842 -0.294052 0.168128
                  }
                }
              }
              JOINT lPinky1
              {
                OFFSET 8.27202 -0.0477905 -0.4584
                CHANNELS 3 Zrotation Xrotation Yrotation
                JOINT lPinky2
                {
                  OFFSET 1.82734 -0.647385 -0.700984
                  CHANNELS 3 Zrotation Xrotation Yrotation
                  End Site
                  {
                    OFFSET 1.69225 -0.51767 -0.607171
                  }
                }
              }
            }
          }
        }
      }
    }
  }
  JOINT rButtock
  {
    OFFSET -8.77824 4.35084 1.2192
    CHANNELS 3 Zrotation Xrotation Yrotation
    JOINT rThigh
    {
      OFFSET 0 -1.70687 -2.19456
      CHANNELS 3 Zrotation Xrotation Yrotation
      JOINT rShin
      {
        OFFSET 0 -36.8199 0.73152
        CHANNELS 3 Zrotation Xrotation Yrotation
        JOINT rFoot
        {
          OFFSET 0.73152 -45.1104 -5.12064
          CHANNELS 3 Zrotation Xrotation Yrotation
          End Site
          {
            OFFSET -1.1221 -3.69964 12.103
          }
        }
      }
    }
  }
  JOINT lButtock
  {
    OFFSET 8.77824 4.35084 1.2192
    CHANNELS 3 Zrotation Xrotation Yrotation
    JOINT lThigh
    {
      OFFSET 0 -1.70687 -2.19456
      CHANNELS 3 Zrotation Xrotation Yrotation
      JOINT lShin
      {
        OFFSET 0 -36.8199 0.73152
        CHANNELS 3 Zrotation Xrotation Yrotation
        JOINT lFoot
        {
          OFFSET -0.73152 -45.1104 -5.12064
          CHANNELS 3 Zrotation Xrotation Yrotation
          End Site
          {
            OFFSET 1.1221 -3.69964 12.103
          }
        }
      }
    }
  }
}
MOTION
Frames:	4
Frame Time:	0.03333
61.09858741983771 75.24234056472778 -183.34503257647157 -252.3865274176699 69.73366327470227 -244.04866961102522 -10.14683426209621 30.229583983397696 9.172097111870043 -6.051664144734011 -10.145066096874823 2.8811500961693293 -2.2226590288078047 12.83386824761966 6.967704783667203 -10.27567895059933 -22.460487981771017 9.511198928688252 -0.2987949762156852 -0.46988147656885204 1.1278560108743945 -0.47221355928358827 -1.0423481256030644 -1.629995830562982 -1.8626519239308916 4.156699449613435 -0.026001149458169996 18.95036155974767 60.252213234944 32.23114018381867 -26.709982381448246 -38.697857422054604 81.14567994374296 3.007855868245178 9.028261011912392 4.725240127257065 0.9663710222665466 -0.5794498771303157 0.3040693229979631 -0.7221200424523055 0.6118667019831366 -0.39655037784462666 0.3277458802711214 -0.3417237556858467 1.4784515419618531 8.043263210005573 5.41756346945519 1.1769559996617946 -1.9066635285083382 -0.5944972641195297 1.0056654207267473 2.729359814036374 1.1394396915416187 -0.6560548776227986 -0.8597722065293046 -0.40030874279627904 0.5914225584151134 10.221487375950803 2.0713897620424744 0.34550090365771663 1.7099740373709522 0.8765194568482058 0.8901029421992157 0.3209510159857223 -1.4346106921136568 -2.0133604748540463 1.9267190983456113 2.5548499748464293 -1.5069802816296443 -56.58718836782852 -5.913783115958963 3.6423174763329516 18.540333351040758 -26.45400396682909 -64.06110237654747 3.9274223788939775 -28.669100909008638 2.769994530399484 -1.2140294127029776 -0.7634451415301157 0.0015154482220965792 0.613706477469103 -1.090365315963606 -1.3734050467960552 -1.3874253974496815 -2.8089902148052026 -0.33485226521569655 -6.233046648332869 6.545518838237667 -1.2826514695204496 1.4711113297599108 -1.2597054490037918 -0.01659866702402681 -2.88065448056768 1.4230015049587508 -0.22230768976467918 -2.1614735538925958 1.6997813674168833 -0.14771866229440783 -9.232900309635143 1.0795841825238583 -0.6847145114627308 0.5490476912783839 -0.24540688260955987 -1.0136107450004703 -2.280050760525895 -0.11734179616717282 -0.5438746233948927 0.02951788979782659 0.6056046991747043 1.5633789678754377 -51.713612753498055 -24.40431542332704 -12.94124821288237 -4.097299428835949 44.599878525375985 5.485600691324979 -2.568455498229683 -10.95010975849296 -22.5581374887874 0.3514376187069271 -1.2394087948331582 2.0636887237532853 90.14054730702952 -31.0124500207808 67.42335178794545 107.45368349442116 63.99228822065958 -108.62884486187853 -2.993801259923996 -3.733148747010366 -5.445464365327869
60.1624502800405 75.36216974258423 -185.3746679611504 -252.31931835623698 70.40406683230653 -244.9056124650517 -10.337972837150785 30.907825183074547 10.160592824405553 -6.366882497571977 -10.380990222317172 2.5582691248562552 -1.9001041990275989 12.986347098198317 7.118397966664725 -10.953920150276181 -23.406788493161482 10.037985806161947 0.04609265115975835 -0.15096308219144322 1.1734351438663588 -0.20747681443606922 -1.0947166800734331 -0.995016408758757 -1.7296066690882133 3.957353548497443 -0.21337564327972725 16.695500963767607 59.900431171931665 34.80126523641359 -26.648852188376633 -39.80845984147702 82.18994073575705 3.412958443343454 8.39564206079664 4.755823153039444 0.6938449802791569 -0.2725814305526903 0.5929218916596369 -0.5414622859574088 0.2189664999609265 -0.44181489524794737 0.07285314556488319 -0.3678594745449005 1.391701736200344 7.712875007021009 5.197122529087614 1.141662918116458 -1.471852938893386 -0.3145542770237409 0.988082806255842 2.4052346810773 1.212861663798317 -0.5828512579761291 -0.5848117357113344 -0.640637059592817 0.7515725652053411 10.178568174753735 2.018244060110605 0.10419074716798928 1.5352044375491352 1.0634427379678255 0.8830128323147722 0.27224984621282733 -1.1888992257557967 -1.6686967496173322 1.8389317441604953 2.1595882082382607 -1.0767253214693848 -56.5663289701033 -4.929585299958683 2.9597751784696964 18.69467172062095 -26.534569463183978 -64.97206519671957 2.578966092145275 -29.3727128463575 3.0548443680836925 -1.2500494825080977 -0.7986483633991845 -0.11355808481039731 0.654260618944348 -0.8668851548587854 -1.1861198723721305 -1.3329772638204556 -3.0750156242500326 -0.5178262028911681 -6.236423749990617 6.482896248832406 -1.3758348865932872 1.294356706210559 -1.4329736878686752 -0.19093134818237445 -3.163261668326597 1.7557977765125676 -0.19185358380288484 -1.6505476563321388 1.2641226604060858 0.07362418320872773 -9.305798064873043 1.0870064637175465 -0.5898824574789813 0.3167606415690666 -0.5392834556121747 -1.2824512596004036 -2.283322421138331 0.0144496920759851 -0.44837406464612817 0.5000874012038516 0.1341227171842479 1.3917205192205617 -49.93650681448746 -23.12001787821662 -12.026076288634238 -3.541139322836614 44.73275985567858 4.6000256842978064 -2.4323447691101383 -10.926436322829696 -23.504337254887606 0.1374673220825856 -1.4270228855543015 2.0464881729890774 94.59150838156003 -30.1518222796971 72.92344357936825 127.66010147460854 62.569190986330746 -129.07362278372102 -2.841737343337417 -2.4171369260362816 -6.714691098034659
59.56184854730964 76.248037815094 -187.5362248159945 -251.9293965168993 70.87034335637578 -246.02199322451193 -10.047627471949067 31.65759212373977 11.002399979231285 -6.63567520084772 -10.644815670519023 2.3222301668584855 -1.5435281969915593 12.972399851913151 7.189083167498364 -11.537351494084085 -24.22090606109198 10.4327673250941 0.29002303896983184 0.02449850117066058 1.2477800454346553 -0.002845841006368125 -1.1294242863408528 -0.5088727320237806 -1.5139686323676251 3.652818892181846 -0.29221288833118786 14.314186245493925 59.718133422984025 37.46091699355446 -26.974249230625208 -40.560173386055695 82.61927959679488 3.4597104478819567 7.86139661674929 4.407848066715743 0.45772427345475825 -0.07480924771015138 0.7519427828026969 -0.4722979761528614 -0.08201432355214791 -0.4771167279731583 0.08566775438659072 -0.3342890947742878 1.274235075637407 7.497199831146808 5.174449716137756 1.121064775126992 -1.0488686083828993 -0.13280422387017096 1.0552645469320874 2.1331359527998592 1.3274730918447772 -0.48996794233994884 -0.4300505347328351 -0.8795697766428511 0.9538178816240036 10.261906727911645 2.023462751523318 -0.11991245525518347 1.4166447332755845 1.1730619380612413 0.9239265192167948 0.46042774770561395 -1.1202303181094868 -1.4525515713508705 1.7412677229921292 1.7831836334331455 -0.7771924980603531 -56.81975972416204 -4.034579509235015 1.990767703183525 19.200918511713127 -26.833089711048554 -65.72089981656309 1.582585353099808 -30.168545997879875 3.3276579183464574 -1.3172487255440912 -0.7091485527230994 -0.17208875057258688 0.7237284452801378 -0.6393286514799364 -0.9853176468590447 -1.2594735427371286 -3.1500802570021187 -0.49506374370845435 -6.328103671672406 6.273617972002745 -1.4071530114850883 1.099343919792705 -1.5092316827348098 -0.2625966811619101 -3.2094341740027064 1.9466252577947902 -0.15815812619309633 -1.187393595930632 0.8312210019424464 0.27690352623470676 -9.483739860677508 1.0007877051640062 -0.4422590176265569 0.07374379156048227 -0.7236537400860908 -1.4786290201585677 -2.220431746808146 0.08006518499818197 -0.2864862015989553 0.9618673662825694 -0.027645617552449736 1.2038536047784223 -48.05278845272213 -21.975947531861145 -11.24929424225432 -2.8497081740988217 44.565187994581485 3.6703379005161056 -2.6839437518108435 -10.740223167940345 -24.26174376213949 -0.024452557476321666 -1.4514743224527125 1.9772846963185082 99.34206887384397 -29.285443519332247 78.85742996800529 141.4702248819974 61.090707748022275 -142.8285036211028 -2.642694104979021 -1.1130463464848086 -7.377777388603721
59.33876549825072 77.86023616790771 -189.7477795369923 -251.09417366443344 71.0244255938621 -247.25429595456563 -9.364998729504128 32.422108857917635 11.734741399776514 -6.799433255067007 -10.88926557959284 2.1736453778803817 -1.1911651410129485 12.81555138781298 7.236046694457725 -12.077592136675413 -24.88188054254704 10.73259896927932 0.43832288099349903 0.07248741027917016 1.3128777246404004 0.18252677372824733 -1.1485921450294359 -0.16530291761153956 -1.2394637565116358 3.2916871539694084 -0.2663616895397474 11.99061906910541 59.78654459771087 40.13994599737066 -27.53258816696978 -41.07235561153661 82.73533134098257 3.3247542341755554 7.417340405597374 3.712430648823602 0.2792657311508998 0.03200680005920866 0.8248029720001616 -0.4967468517303336 -0.3072496298302503 -0.438036519976461 0.32683138197428013 -0.25417737911238514 1.1166507653758713 7.421858575733337 5.233106953843002 1.1011086699195072 -0.6482978637989268 -0.0347794833362636 1.1426158362273804 1.9536641946213116 1.4511639757323 -0.39483461298077827 -0.3884284291478352 -1.052371961818587 1.1863030068192513 10.437002896153153 2.051148923323965 -0.27250315018149956 1.3015818724136687 1.2289623406627412 0.9774988945283782 0.8341748453150654 -1.142003253636195 -1.3249075020377912 1.638474443200495 1.4546809895463277 -0.5736588372094968 -57.30027377755619 -3.0478237873905654 0.6701556964425841 19.97458086918964 -27.317686510019083 -66.50813375992043 1.0676394623259753 -30.961790507706816 3.6410645635070775 -1.3482345190440888 -0.52974893841766 -0.20912950677180073 0.8123042594275672 -0.4023469406137196 -0.7939196313377144 -1.169697109399658 -3.0567156264728643 -0.31301743109963515 -6.515359711070652 6.022226456298079 -1.354431635055406 0.9239141394989242 -1.4881701540988408 -0.24519784146836043 -3.0626730455329962 2.034271525884863 -0.06599496862752925 -0.7968544248858512 0.4247657292233906 0.43596518506937526 -9.671309661890751 0.8399000913042699 -0.270034517044216 -0.18441388029072778 -0.7905545892327195 -1.6213934207467626 -2.1297067709496895 0.1363472244195564 -0.05829854605211493 1.3699624180109573 0.03997880475937714 0.9942101262715781 -46.05021796920941 -21.07201639143956 -10.600441639028743 -2.380430635662987 44.346785865681156 2.933957490293871 -3.3446066058850206 -10.545345918088834 -24.81975655695119 -0.10372469347884168 -1.312114664444063 1.860280567628428 104.092431290642 -28.48680657515558 85.07888535842983 149.91706518703882 59.59460945184434 -150.98877650932718 -2.3571192000257337 -0.026260743337376758 -7.313264544345658
